<svg preserveAspectRatio="none" width="100%" height="100%" overflow="visible" style="display: block;" viewBox="0 0 132.178 83.7408" fill="none" xmlns="http://www.w3.org/2000/svg">
<g id="Group 23">
<g id="Vector">
<path d="M93.6122 71.5145C93.6122 69.8264 94.98 68.4579 96.6673 68.4579H105.832C107.52 68.4579 108.887 69.8264 108.887 71.5145V80.6843C108.887 82.3724 107.52 83.7408 105.832 83.7408H96.6673C94.98 83.7408 93.6122 82.3724 93.6122 80.6843V71.5145Z" fill="var(--fill-0, #010101)"/>
<path d="M28.4921 23.2786C29.8601 23.2776 83.7866 23.9052 85.603 23.9475V23.9507H105.256C107.25 23.9507 108.867 25.5689 108.867 27.565L108.841 48.9876C108.839 50.7177 108.151 52.3763 106.929 53.5997L92.5325 68.0092C91.8223 68.7201 90.8595 69.1203 89.855 69.1221L85.603 69.1297C85.603 69.1297 28.8906 68.4359 27.2667 68.4353L15.2187 68.4203L15.1994 80.0275C15.1967 81.7137 13.928 83.0792 12.3636 83.0798L2.88932 83.0834C1.32305 83.0839 0.0527318 81.7162 0.0515252 80.028L0.0482701 75.1365C0.0434059 71.5084 -0.406918 69.0476 2.30253 66.1615C4.74338 63.7978 7.13639 61.3467 9.57265 58.9724C11.0583 57.5474 12.4341 55.9698 14.0888 54.7364C16.1571 53.1949 18.9778 53.4411 21.4283 53.4447L26.8092 53.4535C28.356 53.4565 85.603 54.1689 85.603 54.1689V54.1627H90.6261C92.4415 54.1627 93.9132 52.6898 93.9132 50.8728V42.2077C93.9132 40.3907 92.4415 38.9177 90.6261 38.9177H85.603V38.9297C83.4933 38.8293 28.2805 38.3043 26.5972 38.2676C24.0786 38.3478 21.5168 38.1443 19.0026 38.2755C14.9052 38.4893 15.1738 41.847 15.1945 44.7355L15.2258 49.1177C15.2316 50.0933 15.3107 51.178 14.8369 52.0691C14.5135 52.6779 13.9811 53.0758 13.3231 53.2664C12.2744 53.5699 4.07267 53.5717 2.73126 53.4252C2.26121 53.3741 1.77523 53.254 1.36169 53.0185C0.774636 52.685 0.34899 52.1909 0.1844 51.5283C-0.0214873 50.6998 -0.0474903 41.9576 0.0692479 40.9213C0.119658 40.4739 0.245933 40.0479 0.493732 39.6677C0.844043 39.13 1.38239 38.7724 1.9936 38.5958C2.85138 38.3479 3.82115 38.4281 4.70634 38.4311C6.72596 38.4378 10.5637 38.6744 12.4054 38.295C15.8943 37.5764 15.6829 34.5684 15.6699 31.7629L15.6482 27.1781C15.6379 24.4654 16.2137 23.6944 19.0424 23.3223C19.3516 23.2815 20.0468 23.2752 20.3792 23.2732L28.4921 23.2786Z" fill="var(--fill-0, #010101)"/>
</g>
<path id="Star 1" d="M120.532 0L121.813 4.19083C122.716 7.14731 125.03 9.46129 127.987 10.3647L132.178 11.6453L127.987 12.9259C125.03 13.8293 122.716 16.1433 121.813 19.0998L120.532 23.2906L119.252 19.0998C118.348 16.1433 116.034 13.8293 113.078 12.9259L108.887 11.6453L113.078 10.3647C116.034 9.46129 118.348 7.14731 119.252 4.19083L120.532 0Z" fill="var(--fill-0, #010101)"/>
</g>
</svg>
